<svg width="38" height="44" viewBox="0 0 38 44" fill="none" xmlns="http://www.w3.org/2000/svg">
<g clip-path="url(#clip0_66_1737)">
<path d="M21.8291 36.7338C20.9657 37.4438 20.1218 38.1329 18.9878 38.1256C17.8537 38.1182 17.0367 37.445 16.1684 36.7277C16.0965 36.9394 16.038 37.1035 15.9855 37.2712C15.3758 39.2044 14.7661 41.1377 14.1564 43.0709C13.9271 43.7968 13.6576 43.9976 12.893 43.9988H4.67406C3.63022 43.9988 3.23025 43.4565 3.54243 42.465C4.66553 38.8882 5.78374 35.309 6.92757 31.7395C7.06537 31.3074 6.96904 31.0675 6.58857 30.9096C5.99959 30.6647 5.40572 30.4334 4.81308 30.1971C4.62894 30.1237 4.44115 30.0637 4.26067 29.9829C2.57541 29.2375 1.94375 28.0709 2.2291 26.2372C2.3169 25.6802 2.40347 25.1221 2.51566 24.5688C2.59987 24.2257 2.59759 23.867 2.50902 23.525C2.42045 23.1831 2.24839 22.8687 2.00838 22.6102C1.58402 22.1316 1.16941 21.6407 0.788945 21.1242C-0.269524 19.6785 -0.264647 18.4189 0.810893 16.9745C1.20111 16.4481 1.62304 15.9438 2.05472 15.4517C2.54249 14.9009 2.64614 14.2803 2.52786 13.5752C2.3925 12.7795 2.25348 11.9839 2.19739 11.176C2.10471 9.86007 2.71809 8.9065 3.88265 8.33975C4.5277 8.0332 5.1921 7.76946 5.87154 7.55021C6.69832 7.27479 7.2617 6.77781 7.51046 5.92217C7.64704 5.45579 7.83118 5.00165 8.00922 4.54751C8.79453 2.55714 10.0103 1.88634 12.1004 2.27315C12.6382 2.3723 13.182 2.44575 13.7186 2.54857C13.9947 2.60673 14.2805 2.59998 14.5536 2.52884C14.8268 2.4577 15.0798 2.3241 15.2929 2.1385C15.8221 1.70272 16.3379 1.24858 16.8782 0.83484C18.3415 -0.272964 19.6268 -0.275411 21.095 0.820151C21.5149 1.12382 21.9134 1.45635 22.2876 1.81534C23.0192 2.54245 23.8582 2.68567 24.8484 2.48002C25.6508 2.31198 26.4676 2.22342 27.2872 2.21562C28.2762 2.21562 29.0408 2.73463 29.5066 3.59517C29.8689 4.24691 30.1612 4.93545 30.3785 5.6492C30.6931 6.72395 31.3394 7.37149 32.4101 7.64936C32.8486 7.7754 33.2771 7.93458 33.6917 8.12553C35.4282 8.87101 36.066 10.0547 35.7587 11.9312C35.6672 12.4882 35.5745 13.0452 35.4733 13.5997C35.3514 14.2839 35.4611 14.896 35.9343 15.4358C36.3659 15.9255 36.7879 16.4322 37.1793 16.9574C38.2707 18.4263 38.2768 19.6761 37.1903 21.1487C36.8244 21.6518 36.4184 22.134 36.0025 22.5992C35.4806 23.1819 35.3416 23.8343 35.4818 24.5945C35.632 25.3576 35.7411 26.1282 35.8086 26.9031C35.9099 28.257 35.2843 29.2289 34.0844 29.8103C33.5393 30.0747 32.9576 30.2632 32.3942 30.4885C32.0979 30.6109 31.7955 30.7137 31.5101 30.8557C30.9419 31.1372 30.9224 31.2058 31.1102 31.8032C32.2255 35.3506 33.3401 38.9004 34.4539 42.4528C34.7733 43.4712 34.377 44.0049 33.3015 44.0061H25.174C24.3204 44.0061 24.0862 43.8311 23.8326 43.0097L22.0181 37.2565C21.9608 37.0912 21.9071 36.9382 21.8291 36.7338ZM33.9088 11.1503C33.9234 10.6386 33.6978 10.2812 33.2478 10.0853C32.7087 9.83935 32.1567 9.62278 31.5943 9.43654C30.0432 8.95669 29.0542 7.94804 28.5835 6.39344C28.4066 5.85801 28.2031 5.33181 27.9738 4.81681C27.7689 4.32718 27.3946 4.08236 26.8543 4.14723C26.2824 4.22313 25.7056 4.28433 25.1471 4.40797C23.5911 4.75071 22.2205 4.4349 21.0572 3.31975C20.7706 3.04678 20.4609 2.79706 20.1499 2.55224C19.139 1.76148 18.8536 1.76148 17.833 2.56693C17.3915 2.91702 16.9672 3.28914 16.5343 3.64903C15.5953 4.43 14.5198 4.67727 13.3284 4.47407C12.6992 4.36635 12.0724 4.23904 11.4383 4.16682C10.5176 4.064 10.2457 4.23292 9.89568 5.08489C9.66398 5.64797 9.45668 6.22207 9.25547 6.79862C8.82379 8.03495 7.9897 8.85632 6.76539 9.29577C6.16543 9.51121 5.56303 9.7242 4.97526 9.97391C4.2058 10.3007 4.02166 10.6533 4.14604 11.4881C4.22734 12.0463 4.32083 12.6029 4.42652 13.1578C4.68138 14.5043 4.42652 15.7014 3.51926 16.7468C3.10953 17.2169 2.70833 17.6992 2.33397 18.1986C1.83034 18.8682 1.82912 19.266 2.33397 19.9344C2.77418 20.5182 3.25708 21.0691 3.71192 21.6481C4.02038 22.0185 4.24908 22.449 4.38361 22.9124C4.51814 23.3759 4.55559 23.8624 4.49359 24.3411C4.39603 25.1123 4.25945 25.8785 4.14604 26.6473C4.0241 27.4809 4.20824 27.8359 4.97404 28.1627C5.47645 28.3781 5.99105 28.5691 6.51053 28.738C7.94702 29.2056 8.89818 30.1384 9.35669 31.5914C9.54211 32.1723 9.76158 32.7417 10.014 33.2965C10.2883 33.9086 10.6005 34.0616 11.2541 33.9882C11.6796 33.9501 12.1018 33.8814 12.5175 33.7825C14.3393 33.3027 15.9148 33.698 17.2403 35.058C17.4274 35.2378 17.6253 35.4058 17.833 35.5611C18.828 36.3543 19.1634 36.3592 20.1499 35.5746C20.6633 35.167 21.1523 34.73 21.6718 34.3321C22.0628 34.0251 22.5139 33.8042 22.9957 33.6838C23.4775 33.5634 23.9791 33.5461 24.4679 33.6332C25.2179 33.7556 25.9678 33.878 26.7214 33.9759C27.3982 34.0641 27.714 33.8951 27.9957 33.2696C28.2326 32.7413 28.4391 32.1998 28.614 31.6477C29.0859 30.1494 30.0541 29.1762 31.5516 28.7099C32.1016 28.5385 32.6332 28.3059 33.1674 28.088C33.721 27.8616 33.9527 27.4344 33.8734 26.8456C33.8076 26.3559 33.7515 25.8749 33.6368 25.4011C33.243 23.729 33.5637 22.2601 34.7831 21.0091C35.1177 20.6541 35.4259 20.2748 35.705 19.8744C36.1537 19.2538 36.1598 18.8682 35.705 18.2512C35.3209 17.7236 34.8929 17.2193 34.4673 16.7248C33.571 15.6892 33.3259 14.4994 33.5698 13.1749C33.6905 12.5017 33.7954 11.8223 33.9088 11.1466V11.1503ZM29.7749 34.0714C29.2347 35.1731 28.4933 35.8378 27.3763 35.9173C26.8226 35.9565 26.258 35.8745 25.702 35.8121C24.9996 35.7325 24.3021 35.6162 23.5655 35.5097C23.5683 35.607 23.5785 35.704 23.596 35.7998C24.2167 37.7755 24.8496 39.7475 25.4557 41.7269C25.5495 42.0341 25.7264 42.0341 25.9642 42.0341C27.925 42.0341 29.8859 42.0341 31.8467 42.0341C31.9687 42.0341 32.1016 42.0133 32.2674 41.9974C31.4406 39.3619 30.6285 36.7803 29.7749 34.0677V34.0714ZM14.4746 35.577C14.2878 35.5657 14.1005 35.5657 13.9137 35.577C13.1467 35.6847 12.3833 35.8218 11.6163 35.9137C10.203 36.0875 9.06768 35.6603 8.36529 34.3407C8.31685 34.2686 8.2626 34.2007 8.2031 34.1375C7.36779 36.7962 6.55321 39.384 5.72278 42.0268C7.94337 42.0268 10.0847 42.0268 12.226 42.0182C12.2868 42.0069 12.344 41.981 12.3928 41.9429C12.4416 41.9048 12.4806 41.8555 12.5065 41.7991C13.1613 39.7573 13.8015 37.7094 14.4746 35.5734V35.577Z" fill="white"/>
<path d="M6.83374 19.0713C6.8334 15.8335 8.11172 12.7277 10.3886 10.4343C12.6654 8.14098 15.7551 6.84721 18.9805 6.83652C25.6874 6.81081 31.1749 12.3241 31.1675 19.0774C31.1624 22.3149 29.8782 25.4182 27.5968 27.7066C25.3153 29.9949 22.2228 31.2815 18.9976 31.2841C15.7723 31.2802 12.6803 29.9922 10.3999 27.7026C8.11947 25.413 6.83697 22.3089 6.83374 19.0713V19.0713ZM19.011 8.8073C16.3015 8.80243 13.7008 9.87729 11.7802 11.7958C9.85964 13.7143 8.77616 16.3196 8.76776 19.0395C8.75679 24.7058 13.3723 29.3463 19.011 29.3341C24.6204 29.3219 29.2079 24.7303 29.2274 19.108C29.2322 17.7578 28.9716 16.4198 28.4604 15.1709C27.9493 13.9219 27.1976 12.7865 26.2486 11.8296C25.2995 10.8727 24.1717 10.1132 22.9298 9.59457C21.6878 9.07595 20.3561 8.80842 19.011 8.8073V8.8073Z" fill="white"/>
<path d="M19.0098 11.7427C19.4573 11.7427 19.7415 11.9875 19.9232 12.3817C20.3731 13.3487 20.8414 14.3072 21.2645 15.2828C21.3124 15.4171 21.3991 15.534 21.5136 15.6184C21.6281 15.7028 21.7652 15.7509 21.9072 15.7565C22.8266 15.8789 23.7363 16.0331 24.6582 16.1653C25.146 16.2351 25.5923 16.3502 25.7667 16.89C25.935 17.4078 25.6667 17.7603 25.3289 18.1006C24.6204 18.8155 23.9144 19.5328 23.2315 20.271C23.1707 20.3478 23.1262 20.4363 23.1008 20.531C23.0754 20.6258 23.0697 20.7247 23.0839 20.8218C23.301 21.8819 23.5498 22.9358 23.7985 23.9885C23.907 24.4488 23.9046 24.8748 23.5034 25.1979C23.1022 25.5211 22.6901 25.4427 22.2681 25.2187C21.3255 24.7291 20.3695 24.2541 19.4342 23.7498C19.3102 23.6673 19.1651 23.6223 19.0163 23.6204C18.8675 23.6184 18.7213 23.6595 18.5952 23.7388C17.6477 24.2554 16.677 24.7279 15.721 25.2297C15.3113 25.444 14.9149 25.5137 14.5235 25.2163C14.1126 24.9029 14.0943 24.4818 14.2016 24.0167C14.4455 22.9774 14.6613 21.9357 14.9332 20.8989C15.0149 20.5794 14.9332 20.3921 14.7186 20.1804C14.0174 19.4802 13.337 18.7592 12.6395 18.0566C12.3078 17.7224 12.0822 17.3662 12.2505 16.8753C12.4188 16.3845 12.8236 16.2449 13.2821 16.1776C14.2577 16.0319 15.2332 15.8654 16.2088 15.7394C16.3191 15.7301 16.4242 15.6883 16.511 15.6193C16.5978 15.5503 16.6623 15.457 16.6965 15.3513C17.1469 14.372 17.6046 13.3928 18.0696 12.4135C18.2964 11.9312 18.5745 11.7403 19.0098 11.7427ZM15.2917 17.8558L15.1698 18.0358C15.6417 18.4654 16.11 18.9012 16.588 19.3235C17.0148 19.6981 17.1148 20.1436 16.9697 20.6859C16.8051 21.298 16.6795 21.9198 16.5197 22.6077C17.1624 22.2785 17.7391 22.0079 18.2928 21.6909C18.7805 21.4094 19.2269 21.4228 19.7098 21.697C20.2597 22.0079 20.8316 22.2785 21.467 22.6041C21.3084 21.9174 21.1901 21.3065 21.0231 20.7092C20.867 20.1473 20.9828 19.7042 21.4096 19.3039C21.873 18.8706 22.2998 18.3981 22.8059 17.8778C22.095 17.7616 21.4743 17.633 20.8475 17.5657C20.3329 17.5082 20.0219 17.2487 19.8207 16.7872C19.5768 16.2241 19.3012 15.672 18.9939 15.0196C18.6757 15.6977 18.3989 16.2682 18.1403 16.8459C18.0671 17.0393 17.9419 17.2085 17.7788 17.3349C17.6157 17.4613 17.4209 17.5399 17.216 17.562C16.5722 17.6428 15.932 17.7554 15.2917 17.8558Z" fill="white"/>
</g>
<defs>
<clipPath id="clip0_66_1737">
<rect width="38" height="44" fill="white"/>
</clipPath>
</defs>
</svg>
