<svg width="70" height="70" viewBox="0 0 70 70" fill="none" xmlns="http://www.w3.org/2000/svg">
<circle opacity="0.2" cx="35" cy="35" r="35" fill="white"/>
<path fill-rule="evenodd" clip-rule="evenodd" d="M45.57 35C45.57 35.3409 45.4346 35.6679 45.1935 35.909C44.9524 36.15 44.6255 36.2855 44.2845 36.2855H29.3909L34.9108 41.8028C35.0303 41.9223 35.1251 42.0642 35.1898 42.2203C35.2545 42.3765 35.2878 42.5439 35.2878 42.7129C35.2878 42.8819 35.2545 43.0493 35.1898 43.2054C35.1251 43.3616 35.0303 43.5035 34.9108 43.623C34.7913 43.7425 34.6494 43.8373 34.4932 43.902C34.3371 43.9667 34.1697 44 34.0007 44C33.8316 44 33.6643 43.9667 33.5081 43.902C33.352 43.8373 33.2101 43.7425 33.0906 43.623L25.3777 35.9101C25.2579 35.7907 25.163 35.6489 25.0982 35.4927C25.0334 35.3365 25 35.1691 25 35C25 34.8309 25.0334 34.6635 25.0982 34.5073C25.163 34.3511 25.2579 34.2093 25.3777 34.0899L33.0906 26.377C33.3319 26.1356 33.6593 26 34.0007 26C34.342 26 34.6694 26.1356 34.9108 26.377C35.1522 26.6184 35.2878 26.9457 35.2878 27.2871C35.2878 27.6285 35.1522 27.9558 34.9108 28.1972L29.3909 33.7145H44.2845C44.6255 33.7145 44.9524 33.85 45.1935 34.091C45.4346 34.3321 45.57 34.6591 45.57 35Z" fill="white"/>
</svg>
