<svg width="14" height="20" viewBox="0 0 14 20" fill="none" xmlns="http://www.w3.org/2000/svg">
<g clip-path="url(#clip0_13_220)">
<path d="M0.387765 5.87262L0.387963 5.87263L0.387765 5.87262ZM7.00061 17.1389C6.99092 17.1252 6.98123 17.1114 6.97152 17.0974L6.97154 17.0974L6.96839 17.093C6.65894 16.6586 6.34895 16.2269 6.03964 15.7961C5.29483 14.7588 4.55393 13.7269 3.83386 12.6765L3.83264 12.6748C2.8528 11.2587 2.02321 9.74466 1.35725 8.15725C1.0462 7.40652 0.858671 6.66022 0.887417 5.8913L0.887438 5.8907C0.925063 4.85082 1.28689 3.84848 1.9226 3.02345L1.92262 3.02348L1.92618 3.01875C2.99271 1.60021 4.40567 0.77106 6.16027 0.556938C7.93355 0.340537 9.52414 0.729413 10.9103 1.82097L10.9103 1.821L10.9151 1.82467C12.0518 2.69786 12.8178 3.96562 13.0611 5.37606C13.1894 6.14012 13.1026 6.92473 12.8104 7.64254L12.8103 7.64249L12.8063 7.65312C12.1399 9.40329 11.2192 11.0308 10.1906 12.6264L10.1903 12.6269C9.19603 14.1726 8.11405 15.6586 7.00061 17.1389ZM6.92566 2.94715V2.94704L6.91327 2.94735C6.43846 2.95912 5.9708 3.06581 5.53796 3.26115C5.10512 3.45648 4.71586 3.73651 4.39323 4.0847C4.0706 4.43289 3.82116 4.84219 3.65972 5.28839C3.49881 5.73313 3.42859 6.2055 3.45318 6.67773C3.52254 8.6031 5.19927 10.1151 7.14072 10.0479L7.14072 10.0479L7.14712 10.0476C8.08001 10.0034 8.95826 9.5947 9.59215 8.90953C10.2261 8.22433 10.5647 7.31758 10.5347 6.38504C10.5046 5.4525 10.1084 4.56937 9.43171 3.92625C8.7568 3.28478 7.85696 2.9334 6.92566 2.94715Z" stroke="white"/>
<path d="M9.49314 18.6211C9.35135 18.6925 9.20363 18.7514 9.05166 18.7973L9.03981 18.8009L9.03977 18.8007C8.32707 18.9968 7.58823 19.0812 6.84965 19.0509C6.21226 19.0547 5.57735 18.971 4.96278 18.8021L4.95485 18.7999L4.94699 18.7974C4.75951 18.7392 4.57979 18.6585 4.41173 18.5571C4.21451 18.4385 4.01466 18.2186 4.01591 17.9037C4.01713 17.5967 4.20973 17.3789 4.39367 17.2569L4.39491 17.2561C4.46323 17.2111 4.53537 17.1722 4.61046 17.1399C4.51662 17.0064 4.42344 16.8723 4.33278 16.7381C4.2014 16.7563 4.07353 16.7731 3.94764 16.7897C3.6444 16.8295 3.35258 16.8679 3.05049 16.921L3.03838 16.9232L3.03835 16.923C2.36009 17.0253 1.69924 17.2205 1.07453 17.5031M9.49314 18.6211C9.49287 18.6213 9.4926 18.6214 9.49233 18.6215L9.26907 18.1742L9.49395 18.6207C9.49368 18.6209 9.49341 18.621 9.49314 18.6211ZM9.49314 18.6211C9.67988 18.5278 9.94463 18.3311 9.97508 17.9859C10.0067 17.6276 9.76438 17.3878 9.57996 17.2657L9.56827 17.2579L9.55618 17.2509C9.50258 17.2196 9.44811 17.1899 9.39283 17.1618M9.39283 17.1618L9.57926 16.8927L9.58016 16.8914C9.59642 16.8677 9.61655 16.8393 9.63877 16.808C9.6558 16.784 9.67405 16.7582 9.69274 16.7316M9.39283 17.1618C9.26366 17.0962 9.13008 17.0394 8.99301 16.992L8.99302 16.992L8.98978 16.9909C8.96621 16.983 8.94251 16.9754 8.91869 16.9682L9.16825 16.6079M9.39283 17.1618L9.10495 17.5773C9.1727 17.6096 9.2391 17.6447 9.30397 17.6826L9.16825 16.6079M9.69274 16.7316C10.6222 16.8352 11.5122 16.9731 12.3637 17.2609L12.3653 17.2615C12.6357 17.3519 12.8985 17.4636 13.1512 17.5956M9.69274 16.7316C9.73365 16.6732 9.77662 16.6104 9.81333 16.5516L9.82234 16.5372L9.83036 16.5222C9.825 16.5322 9.81918 16.542 9.81293 16.5514C9.77636 16.6064 9.72504 16.6502 9.6647 16.6777C9.61224 16.7016 9.55505 16.7121 9.49813 16.7089C9.47839 16.7078 9.45869 16.705 9.43922 16.7005L9.46831 16.7072L9.49798 16.7104C9.56309 16.7173 9.62801 16.7243 9.69274 16.7316ZM13.1512 17.5956C13.2778 17.6715 13.3918 17.7663 13.4895 17.8769L13.4998 17.8885L13.5086 17.8974M13.1512 17.5956C13.1479 17.5936 13.1446 17.5916 13.1413 17.5897L13.395 17.1588M13.1512 17.5956C13.155 17.5975 13.1587 17.5995 13.1625 17.6015L13.395 17.1588M13.5086 17.8974L13.5025 17.9066L13.4953 17.9189C13.4388 18.0161 13.3574 18.0969 13.2594 18.1528L13.2594 18.1528L13.2555 18.1551C12.749 18.4506 12.1958 18.6579 11.6195 18.768L11.6195 18.768L11.6104 18.7699C9.74749 19.162 7.84092 19.307 5.94002 19.2011L5.93621 19.2009C4.63005 19.1382 3.36288 19.0252 2.13643 18.7009L2.1264 18.6983L2.11627 18.696C1.6494 18.5931 1.20235 18.4154 0.792444 18.1699M13.5086 17.8974L13.5108 17.8995C13.5103 17.8991 13.5099 17.8983 13.5098 17.8973C13.5097 17.8963 13.5099 17.8953 13.5104 17.8947L13.5086 17.8974ZM0.792444 18.1699C0.704272 18.1129 0.623421 18.0454 0.551673 17.9689M0.792444 18.1699C0.79427 18.1711 0.796099 18.1723 0.797931 18.1735L0.528601 18.5947M0.792444 18.1699C0.790362 18.1687 0.788281 18.1674 0.786201 18.1662L0.528601 18.5947M0.551673 17.9689C0.522626 17.9354 0.512627 17.9133 0.509338 17.9031M0.551673 17.9689C0.55278 17.9702 0.553916 17.9715 0.555079 17.9728L0.180895 18.3045M0.551673 17.9689C0.550214 17.9674 0.548759 17.9658 0.547308 17.9642L0.180895 18.3045M0.509338 17.9031C0.513237 17.8963 0.523867 17.8805 0.548735 17.8583L0.548739 17.8583L0.550519 17.8567C0.707752 17.715 0.884138 17.596 1.07453 17.5031M0.509338 17.9031C0.50863 17.901 0.508233 17.8993 0.508024 17.8983M0.509338 17.9031C0.508885 17.9039 0.508523 17.9046 0.50824 17.9052C0.507444 17.9067 0.507171 17.9074 0.507156 17.9074C0.50713 17.9074 0.50791 17.9052 0.508041 17.9013C0.508086 17.9 0.508066 17.899 0.508024 17.8983M1.07453 17.5031C1.07255 17.504 1.07057 17.5049 1.0686 17.5058L0.862088 17.0505M1.07453 17.5031C1.07635 17.5022 1.07818 17.5014 1.08 17.5005L0.862088 17.0505M0.862088 17.0505C0.627179 17.1642 0.409588 17.3106 0.215795 17.4852M0.862088 17.0505C1.53054 16.7473 2.23784 16.538 2.96383 16.4286C3.27422 16.374 3.58719 16.3328 3.89981 16.2916C4.0819 16.2676 4.26387 16.2436 4.44514 16.217C4.48449 16.2079 4.52579 16.212 4.56252 16.2288C4.59926 16.2457 4.62935 16.2742 4.64807 16.3099L0.215795 17.4852M0.215795 17.4852C-0.0530625 17.7252 -0.0569408 18.0361 0.180895 18.3045M0.215795 17.4852L9.16825 16.6079M9.16825 16.6079C9.1928 16.5723 9.21793 16.5368 9.24306 16.5014C9.29333 16.4306 9.3436 16.3598 9.38928 16.2867C9.40437 16.2584 9.42838 16.2359 9.45758 16.2226C9.48679 16.2093 9.51956 16.206 9.55085 16.2132C10.5578 16.3202 11.5582 16.4609 12.5238 16.7873C12.8237 16.8876 13.1151 17.0118 13.395 17.1588M0.180895 18.3045C0.284015 18.4155 0.400852 18.5131 0.528601 18.5947M0.528601 18.5947C0.98664 18.8701 1.48651 19.0692 2.00861 19.1843C3.28698 19.5223 4.59637 19.6372 5.91222 19.7004C7.85696 19.8087 9.80751 19.6603 11.7133 19.2591C12.3453 19.1384 12.952 18.9111 13.5075 18.587C13.6818 18.4874 13.8267 18.3437 13.9275 18.1703C13.9906 18.0748 14.0187 17.9606 14.0072 17.8468C13.9957 17.7331 13.9452 17.6268 13.8642 17.5459C13.7292 17.393 13.5708 17.2624 13.395 17.1588M0.508024 17.8983C0.507825 17.8972 0.507796 17.8967 0.507832 17.8967L0.508024 17.8983ZM6.85839 18.5509C7.54926 18.5804 8.24051 18.502 8.90714 18.3186L5.09531 18.3199C5.6695 18.4778 6.26284 18.5555 6.85839 18.5509Z" stroke="white"/>
</g>
<defs>
<clipPath id="clip0_13_220">
<rect width="14" height="19.7273" fill="white"/>
</clipPath>
</defs>
</svg>
