<svg width="20" height="20" viewBox="0 0 20 20" fill="none" xmlns="http://www.w3.org/2000/svg">
<g clip-path="url(#clip0_13_215)">
<path d="M19.0394 19.2734C18.9917 19.4801 18.8753 19.6644 18.7093 19.7964C18.5433 19.9284 18.3374 20.0001 18.1253 20C8.12123 20 0 11.8944 0 1.87468L5.10165 7.97283C6.53535 11.0136 8.98248 13.4607 12.0233 14.8944L13.9608 12.5272C14.0893 12.3698 14.2654 12.2585 14.4627 12.2099C14.6599 12.1612 14.8677 12.178 15.0546 12.2577L19.4296 14.1327M19.0394 19.2734L19.9769 15.2109M19.0394 19.2734L18.5522 19.1609M19.0394 19.2734L19.2312 14.5916M19.9769 15.2109C20.0253 14.9955 19.9971 14.7701 19.8972 14.5733C19.7973 14.3765 19.632 14.2207 19.4296 14.1327M19.9769 15.2109L19.4891 15.1012M19.9769 15.2109L19.4897 15.0984L19.4893 15.1001C19.5119 14.9986 19.4985 14.8924 19.4514 14.7996C19.4043 14.7069 19.3264 14.6333 19.2312 14.5916M19.4296 14.1327L19.2327 14.5923L19.2312 14.5916M19.4296 14.1327L19.2302 14.5912L14.8585 12.7176L15.0545 12.2578L14.8576 12.7172L14.8581 12.7175C14.771 12.6804 14.6742 12.6727 14.5823 12.6953C14.4903 12.718 14.4081 12.77 14.3481 12.8434L14.3477 12.8439L12.4102 15.2111L12.163 15.5131L11.81 15.3467C8.66424 13.8635 6.13261 11.3319 4.6494 8.18607L4.48297 7.83309L4.78496 7.58591L7.15219 5.64838L7.15339 5.6474C7.22677 5.58772 7.27871 5.50575 7.30134 5.41392C7.32396 5.3221 7.31607 5.22542 7.27884 5.13849C7.27883 5.13847 7.27882 5.13845 7.27882 5.13843L5.40456 0.765151C5.36316 0.670995 5.29033 0.59413 5.19851 0.547719C5.1065 0.501213 5.00118 0.488196 4.90063 0.510888C4.90041 0.510938 4.90019 0.510988 4.89997 0.511038L0.839075 1.44817C0.839052 1.44818 0.839028 1.44818 0.839005 1.44819C0.742628 1.47046 0.656642 1.52473 0.595075 1.60215C0.533493 1.6796 0.499978 1.77562 0.5 1.87457L0.5 1.87468C0.5 11.618 8.3971 19.5 18.1253 19.5H18.1256C18.2246 19.5001 18.3207 19.4666 18.3982 19.405C18.4756 19.3434 18.5299 19.2574 18.5522 19.161C18.5522 19.161 18.5522 19.1609 18.5522 19.1609M19.2312 14.5916L19.4891 15.1012M18.5522 19.1609L19.4891 15.1012M18.5522 19.1609L19.4891 15.1012" stroke="white"/>
</g>
<defs>
<clipPath id="clip0_13_215">
<rect width="20" height="20" fill="white"/>
</clipPath>
</defs>
</svg>
