<svg width="38" height="34" viewBox="0 0 38 34" fill="none" xmlns="http://www.w3.org/2000/svg">
<g clip-path="url(#clip0_66_1753)">
<path d="M37.9997 10.6422V11.3837C37.9773 11.4259 37.9597 11.4705 37.9472 11.5167C37.6799 13.4112 36.6977 14.8024 35.0005 15.6901C34.7757 15.8085 34.7261 15.9483 34.7271 16.1812C34.7329 21.4261 34.7329 26.6714 34.7271 31.9169C34.7271 32.7836 34.3875 33.1243 33.5165 33.1243C23.8267 33.1243 14.1372 33.1243 4.44796 33.1243C3.57214 33.1243 3.2364 32.7895 3.2364 31.9218C3.2364 26.6756 3.2364 21.4303 3.2364 16.186C3.2364 15.9366 3.17412 15.7978 2.93765 15.6717C1.35825 14.8486 0.407486 13.5452 0.0571571 11.8078C-0.0742163 11.1547 -0.0245849 10.5539 0.338395 9.93175C2.11631 6.88418 3.85434 3.8172 5.5836 0.73858C5.88235 0.205741 6.2648 -0.00778357 6.86717 -0.000989629C8.61201 0.0184216 10.3568 0.00580502 12.1017 0.00580502C18.4128 0.00580502 24.7239 0.00289369 31.035 -0.00292969C31.6821 -0.00292969 32.0821 0.230004 32.3974 0.793901C34.2571 4.0909 36.1333 7.36267 37.9997 10.6422ZM5.12331 31.2346H8.40375V30.7202C8.40375 27.6338 8.39791 24.5484 8.40375 21.463C8.40959 19.3743 9.75447 18.0505 11.8496 18.0476C12.6281 18.0476 13.4066 18.0078 14.1852 18.0612C14.6931 18.0961 15.2332 18.1776 15.6857 18.3912C16.9226 18.9735 17.4928 20.0256 17.4958 21.3756C17.5036 24.5232 17.4958 27.6697 17.4958 30.8173V31.2298H32.848V16.2996C30.8229 16.3375 29.2191 15.5377 28.0231 13.913C26.8914 15.4407 25.4132 16.2812 23.5234 16.286C21.6335 16.2909 20.1378 15.4416 19.008 13.9363C16.6949 17.1867 12.0336 16.9518 9.94326 13.9246C8.75019 15.5416 7.14549 16.3394 5.12331 16.2986V31.2346ZM2.72064 9.60175H35.2536C35.2156 9.52217 35.1981 9.47849 35.1757 9.43773C33.7828 6.99321 32.3929 4.54804 31.0058 2.10222C30.8774 1.87608 30.709 1.88481 30.5105 1.88481C22.8266 1.88481 15.1427 1.88481 7.45884 1.88481C7.34541 1.87357 7.23133 1.8984 7.13292 1.95576C7.03451 2.01312 6.95682 2.10005 6.91096 2.20413C5.57776 4.56712 4.23711 6.92656 2.88899 9.28244C2.83644 9.37173 2.78876 9.46976 2.72064 9.60175ZM15.6254 31.2385C15.6332 31.1512 15.6449 31.0793 15.6449 31.0085C15.6449 27.7662 15.6449 24.5232 15.6449 21.2796C15.6449 20.4623 15.0892 19.9208 14.2649 19.9052C13.4738 19.8946 12.6817 19.9052 11.8905 19.9052C10.7695 19.9052 10.2878 20.3837 10.2868 21.5009C10.2868 24.6067 10.2868 27.7141 10.2868 30.8231V31.2404L15.6254 31.2385ZM8.93412 11.5186H1.92753C2.27008 13.2443 3.70837 14.4303 5.43082 14.4303C6.26444 14.4318 7.07205 14.141 7.71246 13.6088C8.35286 13.0765 8.78529 12.3367 8.93412 11.5186V11.5186ZM10.9777 11.5041C11.221 13.2695 12.9366 14.5594 14.7953 14.4157C16.654 14.2721 17.9094 12.6445 17.9239 11.5089L10.9777 11.5041ZM20.0454 11.5041C20.1008 12.7435 21.4749 14.4157 23.4942 14.4235C25.5134 14.4313 26.9109 12.758 26.9731 11.5041H20.0454ZM36.0467 11.5176H29.0673C29.2114 13.0288 30.7022 14.3371 32.3478 14.4187C33.2129 14.4691 34.0667 14.2025 34.7485 13.6689C35.4302 13.1353 35.893 12.3716 36.0496 11.5215L36.0467 11.5176Z" fill="white"/>
<path d="M24.3722 27.1059C23.58 27.1059 22.7879 27.1107 21.9967 27.1059C20.3229 27.0932 19.2719 26.0441 19.2671 24.3679C19.2606 23.1709 19.2606 21.9738 19.2671 20.7768C19.2768 19.1094 20.3375 18.0525 22.0104 18.0495C23.6076 18.0457 25.2039 18.0457 26.7992 18.0495C28.471 18.0495 29.5385 19.1094 29.5473 20.7739C29.5531 21.9709 29.5531 23.168 29.5473 24.365C29.5405 26.0567 28.4895 27.0991 26.7846 27.1068C25.9807 27.1097 25.176 27.1059 24.3722 27.1059ZM24.3867 25.2453C25.2032 25.2453 26.0187 25.2453 26.8342 25.2453C27.4239 25.2453 27.6818 24.9959 27.6837 24.4213C27.6889 23.1919 27.6889 21.959 27.6837 20.7225C27.6837 20.1722 27.4151 19.9091 26.8575 19.9072C25.2259 19.9014 23.5943 19.9014 21.9627 19.9072C21.3914 19.9072 21.1345 20.1741 21.1326 20.7555C21.1287 21.9764 21.1287 23.1971 21.1326 24.4174C21.1326 24.9997 21.3866 25.2424 21.9763 25.2453C22.7801 25.2492 23.5839 25.2492 24.3867 25.2492V25.2453Z" fill="white"/>
</g>
<defs>
<clipPath id="clip0_66_1753">
<rect width="38" height="33.1282" fill="white"/>
</clipPath>
</defs>
</svg>
