<svg width="38" height="34" viewBox="0 0 38 34" fill="none" xmlns="http://www.w3.org/2000/svg">
<g clip-path="url(#clip0_66_1745)">
<path d="M37.9988 26.0131C37.9492 26.2305 37.8997 26.447 37.8511 26.6645C37.2732 29.3417 34.8447 31.3504 32.1674 31.3685C31.4368 31.3685 30.8966 30.8842 30.8788 30.2026C30.8569 29.4978 31.3744 28.9863 32.1277 28.9571C34.1221 28.8786 35.6089 27.334 35.6238 25.3063C35.6347 23.7255 35.6238 22.1437 35.6238 20.5147H35.2065C32.6471 20.5147 30.0871 20.5147 27.5264 20.5147C25.2693 20.5147 23.7528 18.9792 23.7508 16.6886C23.7508 14.8431 23.7508 12.9965 23.7508 11.0895C23.5981 11.153 23.4742 11.1902 23.3622 11.2516C22.1113 11.9293 21.4362 12.9875 21.3797 14.4262C21.3381 15.5177 21.4194 16.6202 21.2975 17.7005C20.9614 20.6546 18.4477 22.9019 15.5096 22.916C11.6131 22.9351 7.71754 22.916 3.82099 22.922C2.80696 22.922 2.37974 23.356 2.37875 24.388C2.37875 25.4684 2.37875 26.5487 2.37875 27.6291C2.37875 28.4517 2.86346 28.945 3.66735 28.9531H3.70403C4.45737 29.0215 5.00453 28.938 5.46546 28.0942C6.23664 26.6846 8.0278 26.2084 9.53943 26.7591C11.0699 27.3169 12.0076 28.8242 11.8758 30.5147C11.7548 32.0642 10.5346 33.4235 9.00912 33.7074C7.3944 34.0095 5.82329 33.2191 5.13637 31.7279C5.00453 31.441 4.85882 31.3594 4.56244 31.3564C3.94688 31.3564 3.31348 31.3765 2.71973 31.2426C1.12186 30.8832 0.0275367 29.4464 0.00870325 27.772C-0.00418281 26.6031 0.00374707 25.4351 0.00870325 24.2662C0.00870325 22.6351 0.818542 21.4027 2.29747 20.7654C2.35297 20.7412 2.40849 20.719 2.48878 20.6858C2.45042 20.606 2.40773 20.5283 2.36091 20.4532C1.59264 19.407 1.18348 18.1337 1.1962 16.8286C1.1962 13.2596 1.1962 9.69103 1.1962 6.12276C1.1962 2.66322 3.80811 0.00715395 7.20904 0.00111285C10.338 -0.00492824 13.467 -0.00492824 16.596 0.00111285C19.6689 0.0061471 22.147 2.23229 22.5325 5.32634C22.6227 6.03818 22.1747 6.64934 21.5017 6.73089C20.8286 6.81245 20.2775 6.36843 20.1813 5.65961C19.9226 3.75263 18.4348 2.37728 16.6307 2.42863V2.82533C16.6307 4.24498 16.6307 5.66498 16.6307 7.0853C16.6307 7.96126 16.1609 8.44254 15.3045 8.44254C13.0167 8.44254 10.7286 8.44254 8.44015 8.44254C7.61247 8.44254 7.1347 7.95119 7.1337 7.10343C7.1337 5.6831 7.1337 4.26311 7.1337 2.84345V2.44071C5.54773 2.32593 3.93895 3.66504 3.64753 5.3213C3.59733 5.61826 3.57278 5.91912 3.57418 6.22042C3.57021 9.71083 3.57021 13.2039 3.57418 16.6997C3.57418 18.9601 5.09771 20.5026 7.32898 20.5036C9.97227 20.5036 12.6192 20.5036 15.2698 20.5036C17.4792 20.5036 18.9978 18.9581 19.0117 16.7208C19.0186 15.6919 18.973 14.6538 19.088 13.6359C19.4102 10.7774 21.8991 8.49288 24.7192 8.4526C27.2409 8.41636 29.7639 8.41636 32.2883 8.4526C35.0637 8.48986 37.5111 10.714 37.9324 13.513C37.9524 13.6086 37.9772 13.703 38.0067 13.796L37.9988 26.0131ZM26.1258 10.8701V11.2728C26.1258 13.069 26.1258 14.8646 26.1258 16.6594C26.1258 17.6341 26.5738 18.0942 27.5234 18.0942H35.2352C35.3552 18.0942 35.4741 18.0841 35.6208 18.0771C35.6208 16.8266 35.6397 15.5982 35.6208 14.3709C35.5822 12.5404 34.1607 10.9566 32.3656 10.8882C30.3058 10.8096 28.2411 10.8701 26.1258 10.8701ZM9.52853 2.43165V6.00395H14.2319V2.43165H9.52853ZM9.49978 30.1603C9.49981 29.8426 9.37667 29.5377 9.15702 29.3116C8.93737 29.0855 8.63887 28.9563 8.32616 28.9521C8.0139 28.9499 7.71332 29.0725 7.48929 29.2934C7.26527 29.5144 7.13577 29.816 7.12875 30.1331C7.12625 30.2934 7.15517 30.4525 7.21383 30.6013C7.27249 30.7501 7.35971 30.8856 7.47041 30.9998C7.58111 31.114 7.71309 31.2048 7.85864 31.2667C8.0042 31.3286 8.16043 31.3605 8.31823 31.3604C8.63096 31.3583 8.93028 31.2312 9.15142 31.0066C9.37256 30.782 9.49771 30.4779 9.49978 30.1603Z" fill="white"/>
<path d="M24.9187 33.7778C23.9745 33.7706 23.0716 33.3836 22.4078 32.7016C21.7439 32.0196 21.3733 31.0981 21.377 30.139C21.3838 29.1802 21.7644 28.2631 22.4354 27.5886C23.1065 26.9142 24.0133 26.5373 24.9573 26.5405C25.8943 26.5487 26.7905 26.9309 27.4524 27.6046C28.1143 28.2782 28.4888 29.1893 28.495 30.141C28.4966 30.6187 28.4052 31.092 28.2261 31.5337C28.047 31.9754 27.7836 32.3768 27.4513 32.7147C27.1189 33.0527 26.7241 33.3206 26.2894 33.503C25.8548 33.6855 25.3889 33.7788 24.9187 33.7778ZM26.123 30.1531C26.1212 29.8349 25.9959 29.5303 25.7743 29.3055C25.5527 29.0806 25.2527 28.9535 24.9395 28.952C24.7813 28.9519 24.6248 28.9839 24.479 29.0461C24.3331 29.1082 24.201 29.1993 24.0902 29.314C23.9795 29.4286 23.8923 29.5646 23.8339 29.7138C23.7755 29.8631 23.747 30.0227 23.75 30.1833C23.758 30.5019 23.8888 30.8045 24.1142 31.0261C24.3396 31.2477 24.6416 31.3706 24.9553 31.3684C25.2686 31.3626 25.5669 31.2315 25.7855 31.0035C26.0041 30.7756 26.1254 30.4693 26.123 30.1511V30.1531Z" fill="white"/>
<path d="M16.6448 28.952C17.0413 28.952 17.4377 28.9419 17.8342 28.952C18.1461 28.9575 18.4433 29.0873 18.6619 29.3133C18.8805 29.5392 19.003 29.8434 19.0029 30.1602C19.002 30.4719 18.8813 30.7709 18.6665 30.9936C18.4517 31.2163 18.1599 31.345 17.8531 31.3523C17.0383 31.3698 16.2225 31.3698 15.4057 31.3523C15.099 31.3447 14.8073 31.2159 14.5926 30.9933C14.3779 30.7707 14.2571 30.4718 14.2559 30.1602C14.254 29.843 14.3758 29.538 14.5945 29.3116C14.8133 29.0852 15.1113 28.956 15.4236 28.952C15.828 28.9439 16.2364 28.952 16.6448 28.952Z" fill="white"/>
</g>
<defs>
<clipPath id="clip0_66_1745">
<rect width="38" height="33.7778" fill="white"/>
</clipPath>
</defs>
</svg>
