<svg width="70" height="70" viewBox="0 0 70 70" fill="none" xmlns="http://www.w3.org/2000/svg">
<circle opacity="0.2" cx="35" cy="35" r="35" transform="rotate(-180 35 35)" fill="black"/>
<path fill-rule="evenodd" clip-rule="evenodd" d="M24.43 35C24.43 34.6591 24.5654 34.3321 24.8065 34.091C25.0476 33.85 25.3745 33.7145 25.7155 33.7145H40.6091L35.0892 28.1972C34.9697 28.0777 34.8749 27.9358 34.8102 27.7797C34.7455 27.6235 34.7122 27.4561 34.7122 27.2871C34.7122 27.1181 34.7455 26.9507 34.8102 26.7946C34.8749 26.6384 34.9697 26.4965 35.0892 26.377C35.2087 26.2575 35.3506 26.1627 35.5068 26.098C35.6629 26.0333 35.8303 26 35.9993 26C36.1684 26 36.3357 26.0333 36.4919 26.098C36.648 26.1627 36.7899 26.2575 36.9094 26.377L44.6223 34.0899C44.7421 34.2093 44.837 34.3511 44.9018 34.5073C44.9666 34.6635 45 34.8309 45 35C45 35.1691 44.9666 35.3365 44.9018 35.4927C44.837 35.6489 44.7421 35.7907 44.6223 35.9101L36.9094 43.623C36.6681 43.8644 36.3407 44 35.9993 44C35.658 44 35.3306 43.8644 35.0892 43.623C34.8478 43.3816 34.7122 43.0543 34.7122 42.7129C34.7122 42.3715 34.8478 42.0442 35.0892 41.8028L40.6091 36.2855H25.7155C25.3745 36.2855 25.0476 36.15 24.8065 35.909C24.5654 35.6679 24.43 35.3409 24.43 35Z" fill="white"/>
</svg>
